<svg width="108" height="16" viewBox="0 0 108 16" fill="none" xmlns="http://www.w3.org/2000/svg">
<path d="M0.22 4.296H4.312V16H9.196V4.296H13.332V0.424H0.22V4.296ZM30.4306 0.424H20.0466V16H30.4306V12.106H24.9306V9.906H29.7706V6.232H24.9306V4.318H30.4306V0.424ZM48.0452 0.424H37.6612V16H48.0452V12.106H42.5452V9.906H47.3852V6.232H42.5452V4.318H48.0452V0.424ZM64.6919 16H70.4999L64.7799 7.882L70.1479 0.424H64.6259L60.1599 6.98V0.424H55.2759V16H60.1599V9.246L64.6919 16ZM87.6573 0.424H77.2733V16H87.6573V12.106H82.1573V9.906H86.9973V6.232H82.1573V4.318H87.6573V0.424ZM94.0079 4.296H98.0999V16H102.984V4.296H107.12V0.424H94.0079V4.296Z" fill="#20C997"/>
</svg>
